<svg width="166" height="80" viewBox="0 0 166 80" fill="none" xmlns="http://www.w3.org/2000/svg">
<g clip-path="url(#clip0_5_170)">
<path d="M66.692 69.2221C66.3058 68.5265 65.8077 68.1701 65.0183 68.1701C64.1883 68.1701 63.2769 68.7776 63.2769 69.7583C63.2769 70.6304 64.0765 71.0886 64.727 71.3533L65.4723 71.6689C66.9563 72.2865 68.0608 73.162 68.0608 75.0285C68.0608 77.0578 66.5971 78.5136 64.727 78.5136C63.0431 78.5136 61.7286 77.18 61.5049 75.3848L62.8195 75.0896C62.8059 76.318 63.7173 77.2071 64.8388 77.2071C65.9602 77.2071 66.7598 76.1993 66.7598 75.0285C66.7598 73.8272 65.8619 73.3113 64.9641 72.9109L64.2459 72.5851C63.0567 72.0388 61.9725 71.3126 61.9725 69.7583C61.9725 67.9496 63.47 66.867 65.0454 66.867C66.2075 66.867 67.1629 67.4745 67.7287 68.557L66.692 69.2221Z" fill="white"/>
<path d="M72.2956 78.2741H70.9946V68.3785H68.5213V67.1025H74.7722V68.3785H72.2956V78.2741Z" fill="white"/>
<path d="M76.9166 67.1039V73.6942C76.9166 75.5199 77.4282 77.2065 79.4339 77.2065C81.4396 77.2065 81.9512 75.5199 81.9512 73.6942V67.1039H83.2522V74.1693C83.2522 76.6296 81.8258 78.513 79.4339 78.513C77.042 78.513 75.6156 76.6296 75.6156 74.1693V67.1039H76.9166Z" fill="white"/>
<path d="M86.2425 77.0001H86.6999C89.3527 77.0001 91.6498 75.9345 91.6498 72.6903C91.6498 69.4291 89.3527 68.3771 86.6999 68.3771H86.2425V77.0001ZM84.9415 67.1045H87.0997C90.298 67.1045 92.9508 68.9099 92.9508 72.6292C92.9508 76.4368 90.3488 78.2727 87.0556 78.2727H84.9415V67.1045Z" fill="white"/>
<path d="M95.5134 78.2758H94.2123V67.1042H95.5134V78.2758Z" fill="white"/>
<path d="M106.356 72.6887C106.356 70.2283 104.641 68.1685 102.192 68.1685C99.7457 68.1685 98.0313 70.2283 98.0313 72.6887C98.0313 75.2372 99.9388 77.2089 102.192 77.2089C104.448 77.2089 106.356 75.2372 106.356 72.6887ZM107.657 72.6887C107.657 76.0075 105.211 78.5086 102.192 78.5086C99.1765 78.5086 96.7303 76.0075 96.7303 72.6887C96.7303 69.4886 99.207 66.8687 102.192 66.8687C105.18 66.8687 107.657 69.4886 107.657 72.6887" fill="white"/>
<path d="M122.417 72.6445V73.0891C122.417 76.1569 120.398 78.512 117.481 78.512C114.561 78.512 112.209 75.8141 112.209 72.7192C112.209 69.5055 114.618 66.8653 117.617 66.8653C119.236 66.8653 120.842 67.6492 121.865 69.0304L120.954 69.9636C120.205 68.8675 118.945 68.1413 117.674 68.1413C115.336 68.1413 113.51 70.1706 113.51 72.6717C113.51 75.0166 115.309 77.236 117.562 77.236C119.182 77.236 120.923 75.7428 120.977 73.9171H118.281V72.6445H122.417Z" fill="white"/>
<path d="M129.861 71.6071V67.1039H131.162V78.272H129.861V72.9136H124.898V78.272H123.597V67.1039H124.898V71.6071H129.861Z" fill="white"/>
<path d="M134.306 78.2758H133.005V67.1042H134.306V78.2758Z" fill="white"/>
<path d="M137.444 77.0294H138.44C139.643 77.0294 140.9 76.6459 140.9 75.0577C140.9 73.4899 139.409 73.1607 138.247 73.1607H137.444V77.0294ZM137.444 72.0544H137.776C139.009 72.0544 140.016 71.7863 140.016 70.1846C140.016 68.6134 139.019 68.3487 137.803 68.3487H137.444V72.0544ZM136.143 67.1033H137.417C139.379 67.1033 141.232 67.6496 141.232 70.171C141.232 70.9821 140.819 71.9323 140.11 72.2886V72.3157C141.344 72.5567 142.201 73.8428 142.201 75.1459C142.201 77.3857 140.419 78.2748 138.579 78.2748H136.143V67.1033Z" fill="white"/>
<path d="M144.957 77.0001H148.125V78.2727H143.656V67.1045H144.957V77.0001Z" fill="white"/>
<path d="M150.237 78.2758H148.936V67.1042H150.237V78.2758Z" fill="white"/>
<path d="M47.152 59.6598C50.3571 58.4008 53.945 54.9666 55.5272 50.331H47.9787V48.6376H57.7328C57.5431 49.5064 57.0078 52.0719 54.9445 55.0887C55.8016 55.8217 57.9225 57.6678 59.8537 59.7039L58.485 61.1835C57.8921 60.4369 56.835 59.1135 53.9586 56.4258C52.9455 57.6678 50.9263 59.9109 48.1549 61.119L47.152 59.6598Z" fill="white"/>
<path d="M64.8882 53.2695C65.5116 53.5512 66.7313 54.1111 68.2559 55.4753C69.5332 53.7208 69.8652 52.0546 69.9973 51.42H64.9187C63.4788 53.5512 62.2456 54.4674 61.1004 55.1801L60.0128 53.8736C62.5505 52.4584 63.8718 50.5818 64.8713 47.7957L66.6297 48.152C66.3518 48.807 66.179 49.2108 65.8606 49.8047H72.0437C71.6643 52.2413 70.4175 59.3779 61.8559 61.5124L60.9276 59.9717C61.9101 59.7987 64.38 59.3643 67.0938 56.7988C65.6437 55.4312 64.3224 54.7627 63.7532 54.4674L64.8882 53.2695Z" fill="white"/>
<path d="M73.1507 59.1464C78.6223 58.6645 81.1057 56.8897 82.9895 50.6897L84.5615 51.4362C82.5863 57.3274 80.1334 60.2187 73.5572 61.0128L73.1507 59.1464ZM84.0499 49.8345C83.7179 48.433 83.4401 47.7984 83.2944 47.4556L84.4734 47.1739C84.88 48.0732 85.1544 49.1015 85.256 49.4748L84.0499 49.8345ZM81.9324 50.1603C81.7291 49.1015 81.5428 48.4805 81.248 47.6558L82.4406 47.3776C82.8031 48.3108 82.9352 48.7146 83.1792 49.8481L81.9324 50.1603ZM76.4031 55.3083C74.7193 54.3241 73.0355 53.7371 72.324 53.5029L72.988 51.8876C73.5301 52.0539 75.6917 52.7427 77.0706 53.5504L76.4031 55.3083ZM77.5212 51.7009C76.0813 50.9204 74.7193 50.3944 73.4691 50.0042L74.1671 48.3719C76.3557 49.0709 77.4467 49.6003 78.2598 50.0042L77.5212 51.7009Z" fill="white"/>
<path d="M99.7585 59.1464C105.23 58.6645 107.714 56.8897 109.597 50.6897L111.169 51.4362C109.194 57.3274 106.741 60.2187 100.165 61.0128L99.7585 59.1464ZM110.658 49.8345C110.326 48.433 110.048 47.7984 109.902 47.4556L111.081 47.1739C111.488 48.0732 111.762 49.1015 111.864 49.4748L110.658 49.8345ZM108.54 50.1603C108.337 49.1015 108.151 48.4805 107.856 47.6558L109.048 47.3776C109.411 48.3108 109.543 48.7146 109.787 49.8481L108.54 50.1603ZM103.011 55.3083C101.327 54.3241 99.6433 53.7371 98.9318 53.5029L99.5959 51.8876C100.138 52.0539 102.3 52.7427 103.678 53.5504L103.011 55.3083ZM104.129 51.7009C102.693 50.9204 101.327 50.3944 100.077 50.0042L100.775 48.3719C102.967 49.0709 104.055 49.6003 104.868 50.0042L104.129 51.7009Z" fill="white"/>
<path d="M124.349 49.4137C124.247 48.7893 123.969 47.7475 123.725 47.157L124.915 46.9263C125.189 47.6898 125.321 48.1547 125.524 49.1185L124.349 49.4137ZM122.824 47.0484C123.089 47.7034 123.231 48.2328 123.434 49.2135L122.997 49.2746V49.3051H123.868C123.624 56.0684 120.446 59.9065 115.001 61.1554L114.087 59.4891C116.424 59.0073 121.228 57.979 122.011 50.9849H112.823V49.3051H122.126C121.998 48.528 121.865 48.0631 121.577 47.2656L122.824 47.0484V47.0484Z" fill="white"/>
<path d="M136.034 54.0782C136.034 56.5215 135.614 58.4321 133.926 59.7997C132.608 60.8754 131.257 61.1503 128.326 61.493L127.791 59.7827C131.507 59.535 134.323 58.914 134.323 54.9028V48.17H136.034V54.0782ZM128.705 56.8948H127.025V48.4517H128.705V56.8948V56.8948Z" fill="white"/>
<path d="M145.38 47.4237C145.265 47.9361 145.133 48.4961 144.784 49.3988H151.041V50.936H146.22V53.1452H150.679V54.6825H146.22V56.9087H150.679V58.4324H146.22V61.9175H144.655V50.936H144.103C143.13 52.85 142.348 53.7357 141.897 54.2651L140.908 52.9416C142.493 51.2957 143.422 48.8252 143.771 47.2371L145.38 47.4237ZM139.126 53.7527H139.095C138.604 54.4382 138.208 54.825 137.818 55.1983L137.151 53.661C138.76 52.0423 139.732 50.2709 140.373 47.2506L141.911 47.5323C141.707 48.2789 141.375 49.5718 140.661 51.1091V61.9175H139.126V53.7527V53.7527Z" fill="white"/>
<path d="M155.176 51.8231H162.261V49.1795H155.176V51.8231ZM153.743 47.7203H163.67V53.2891H153.743V47.7203ZM160.529 59.6622H163.619V55.9768H160.529V59.6622ZM152.357 54.5447H158.002V61.7458H156.609V61.1078H153.743V61.8544H152.357V54.5447V54.5447ZM153.743 59.6622H156.62V55.9768H153.743V59.6622ZM159.127 54.5447H165.018V61.8544H163.626V61.1078H160.529V61.8544H159.127V54.5447V54.5447Z" fill="white"/>
<path d="M85.9312 58.7056C90.3186 55.5123 91.7992 52.6244 92.0296 52.1323L85.8532 52.1255V50.4152H93.0291V47.8123H94.6451V50.4152H97.9349V52.1662H94.6587L94.6621 61.2745H93.0291L93.0324 53.5304C93.0324 53.5304 91.7213 56.7034 86.8832 60.1818L85.9312 58.7056Z" fill="white"/>
<path d="M46.6775 63.9693H166V64.1661H46.6775" fill="white"/>
<path d="M47.9882 23.6381V23.7976L47.7308 23.8858L47.0261 23.8688L46.3214 23.8994L46.2841 23.8281L46.6093 23.6245C47.0803 23.7127 47.4902 23.4786 47.9205 23.5973L47.9882 23.6381Z" fill="white"/>
<path d="M31.04 39.3855L30.918 39.5314L30.6876 39.8368L30.525 40.0235L30.0371 40.4171L29.5391 40.7463C29.2138 41.0381 28.7666 41.2587 28.2381 41.3435L27.6011 41.4148C27.2352 41.3741 26.832 41.3741 26.5339 41.2112L26.2086 41.1094C25.7784 40.8854 25.6123 40.7225 25.4497 40.2542L25.4362 40.1388H25.4091L25.382 39.7757L25.3413 39.6739L25.2735 38.8798V38.7611H25.2871L25.3007 38.1808L25.3515 38.0654L25.4091 37.95H25.4362L25.4497 37.7634H25.4599L25.5039 37.614V37.0813L25.5581 36.9795L25.5819 36.8471L25.6123 36.6163H25.6395L25.653 36.484H25.6666L25.7072 36.355V36.2668H25.7343L25.7614 36.1107H25.7851L26.0325 35.6458L26.1815 35.4558C26.5068 35.2555 26.788 34.9603 27.303 34.9331L27.8993 34.7295C28.2245 34.7465 28.5227 34.8313 28.8479 34.8924L29.5255 35.2216L29.9287 35.6594H29.9558L29.9863 35.7476H30.01L30.132 35.9784C30.6639 37.0168 30.901 37.6751 30.9993 38.8798L31.0128 39.0088H31.04V39.3855ZM32.0665 39.4126L31.704 39.2124L31.5956 39.1242L31.5143 39.0495L31.4601 38.8188H31.4296L31.3923 38.1808H31.3788L31.3517 38.0111L31.3076 37.7464L31.2568 37.3256H31.2297L31.189 37.122H31.1755L31.1213 36.9489L31.0671 36.7453L30.9586 36.4263H30.9315L30.8672 36.2532C30.3556 35.001 30.071 34.7227 28.7666 34.4004L28.36 34.268C27.9264 34.251 27.452 34.268 27.0624 34.4139C26.7507 34.38 26.5847 34.5565 26.3713 34.6718L25.8427 35.0485L25.6903 35.2827L25.653 35.3981L25.4904 35.6152L25.4091 35.7171L25.3684 35.8765H25.3515L25.2871 36.0055V36.0496L25.2464 36.1955H25.2329L25.1922 36.4127H25.1651V36.484L25.138 36.7453H25.1109L25.0838 37.0813H25.0567L25.0161 37.2679H25.0025L24.9618 37.5122H24.9483L24.9347 37.6887H24.9076V37.8346H24.8805L24.9076 38.079L24.6366 38.5303H24.623L24.6366 38.6762L24.6502 38.7169L24.9076 39.0495H24.8805V39.1547L24.867 39.5144L24.9076 39.735L24.9483 39.9658L24.9618 40.037H24.989L25.0025 40.1694L25.0567 40.3425L25.1109 40.4578L25.3278 40.7802L25.7851 41.2112L26.2188 41.5607C26.666 41.6761 27.0861 41.951 27.6282 41.822C27.9399 41.7779 28.3329 41.7915 28.5362 41.5879L28.9157 41.5166L29.2138 41.4318L29.8474 41.0958L30.2946 40.7599C30.6063 40.5902 30.7554 40.3017 31.0128 40.0947L31.2568 39.7893L31.3517 39.7045L31.9073 39.6332L32.0665 39.4126" fill="white"/>
<path d="M19.8182 35.4415L19.8588 35.455H19.8453V35.4822H19.8317L19.7368 35.8453H19.7097L19.6691 36.0659H19.6555L19.6149 36.3373H19.6013L19.5742 36.5002L19.5336 36.748H19.5065V36.8769H19.4794L19.3845 37.067L19.2219 36.9651L19.2117 36.8498H19.2354L19.2625 36.4425H19.2896L19.3303 36.2559H19.3438L19.3574 36.093H19.3845L19.4116 35.8792H19.4387L19.5065 35.6586L19.5336 35.5704L19.5878 35.4822V35.4279L19.6149 35.4007L19.7368 35.3125L19.8182 35.4415Z" fill="white"/>
<path d="M20.1436 36.3692L20.1571 36.4303L20.1843 36.5729H20.1571L20.1164 36.807L19.8857 36.8749L19.8314 36.5729L19.8857 36.4439L20.1436 36.3692Z" fill="white"/>
<path d="M20.6448 36.6743L20.699 36.7626V36.9933L20.604 37.0782L20.3868 36.878L20.4004 36.749L20.4411 36.7151L20.6448 36.6743Z" fill="white"/>
<path d="M21.4023 37.0948L21.4295 37.2543L21.348 37.3561L21.1207 37.2679L21.063 37.122L21.0766 36.9659H21.2802L21.4023 37.0948Z" fill="white"/>
<path d="M26.8572 38.3558L26.7759 38.254L26.7488 38.0368L26.8436 37.9927L26.8843 38.0368L26.8978 38.1081L26.8572 38.3558ZM27.1824 37.9791L27.1248 37.6737H27.1011L27.074 37.3411L26.9927 37.1816L26.7759 36.9611C26.3422 36.8185 26.2067 37.1952 26.0203 37.3988L25.9356 37.5142L25.895 37.6601H25.8814V37.7484L25.8408 37.8773H25.8171L25.7899 38.4712L25.8408 39.0074L25.8814 39.082L26.1796 39.5605L26.7488 39.53L26.9114 39.4282L27.1011 39.082H27.1248L27.1553 38.9225C27.1248 38.573 27.2231 38.3151 27.1824 37.9791" fill="white"/>
<path d="M15.4593 40.618L15.5135 40.7063L15.6186 40.8658L15.6491 41.0219L15.4864 41.2119L14.714 41.4155L14.2837 41.1983L14.3345 41.0829H14.3481L14.3921 40.9065H14.4192L14.4429 40.747L14.592 40.5569L15.2289 40.428L15.4593 40.618Z" fill="white"/>
<path d="M29.5235 45.7514C28.9679 45.7649 28.4428 45.7514 27.9007 45.7514L27.3315 45.6801L27.2231 45.5783L27.3145 45.5342L28.5342 45.6631C28.873 45.5613 29.1983 45.7106 29.5235 45.7242V45.7514ZM41.1241 47.1461C40.6261 46.9697 40.0433 46.9697 39.5656 46.783C39.1082 46.7355 38.6847 46.593 38.1867 46.6337L37.7022 46.5353L37.2414 46.447C36.8891 46.3758 36.5096 46.3588 36.1302 46.3317C35.8049 46.1552 35.3441 46.2706 35.046 46.1009C34.5039 46.0704 34.0872 45.8125 33.5451 45.8803C33.1623 45.8668 32.854 45.7242 32.4474 45.7649C32.0578 45.6496 31.5801 45.7106 31.1904 45.636L30.4552 45.5783C29.9436 45.5206 29.4016 45.4629 28.873 45.5206C28.4123 45.4324 27.9278 45.3611 27.4094 45.3747L26.7487 45.2729L26.6268 45.5342H26.5997L26.6132 45.6801L26.9385 46.0568C27.345 46.1688 27.8194 46.3317 28.2767 46.2027C28.6426 46.2163 28.995 46.2706 29.3474 46.2299C29.6862 46.2875 30.0385 46.2163 30.3638 46.3045L31.0244 46.3588C31.4581 46.3894 31.8782 46.3452 32.2983 46.4165C32.6236 46.3317 32.8946 46.4912 33.2199 46.5047L34.3819 46.593C34.7783 46.7219 35.2493 46.6507 35.6423 46.7525C36.0082 46.766 36.3741 46.766 36.7129 46.8543L37.4718 46.9255L38.1054 47.0579L38.6746 47.1461C39.0811 47.2886 39.5656 47.2751 39.9756 47.421L40.6769 47.5635L41.2596 47.4889L41.2867 47.4481L41.1241 47.1461" fill="white"/>
<path d="M24.6782 47.477C25.0848 47.6059 25.5964 47.5041 26.0063 47.6942L26.5857 47.8265L26.9516 47.9555C27.2904 47.9555 27.6292 48.0709 27.9782 48.0844L28.2661 48.4068V48.5799C27.7512 48.5494 27.3209 48.3457 26.8161 48.2914L26.1656 48.1421C25.3931 48.115 24.746 47.6942 23.9464 47.8673L23.4721 47.5652L23.4213 47.3888L23.9329 47.4159L24.6782 47.477Z" fill="white"/>
<path d="M40.5293 51.3775C40.177 51.5235 39.8009 51.364 39.4621 51.3199C38.9708 51.1162 38.3915 50.9873 37.8901 50.7973V50.7837L37.2023 50.6683C36.8466 50.5359 36.4569 50.4817 36.0605 50.4206L35.4405 50.2305C34.8849 49.9828 34.1937 49.7826 33.6144 49.579C33.0418 49.4907 32.5573 49.2769 32.0423 49.1141L31.5003 48.8697L31.5138 48.8256C31.8255 48.7951 32.0695 48.9274 32.3405 48.9715C32.7335 49.1751 33.2586 49.2294 33.6923 49.3618L34.1395 49.4195C34.5325 49.5382 34.9933 49.579 35.3457 49.769C35.6845 49.8538 35.9386 50.071 36.3214 50.1016C36.7822 50.2746 37.3073 50.3765 37.7681 50.5359L38.6219 50.709C38.9336 50.7973 39.2825 50.8244 39.5705 50.9567L40.0177 51.0891L40.5429 51.3029H40.5564L40.5293 51.3775ZM41.2882 51.3504L41.085 51.1162L40.6242 50.7837C40.3261 50.7973 40.1634 50.5936 39.8653 50.6242C39.6213 50.5088 39.4181 50.3459 39.0793 50.3629C38.5507 50.1728 37.9172 50.0846 37.3344 49.9692L36.711 49.6944L36.0233 49.4772L35.5218 49.2769L34.8713 49.0869C34.1124 48.8392 33.3027 48.7509 32.5167 48.5338C32.1779 48.4353 31.7578 48.4625 31.4596 48.3064C30.1484 48.1028 28.9423 47.7261 27.6718 47.4614C27.3974 47.2883 26.9637 47.3155 26.6418 47.1865L26.3301 47.1288C26.0184 47.0576 25.6525 47.0406 25.3544 46.9388L25.0291 46.8845L24.3244 46.6639C23.989 46.4603 23.5283 46.6368 23.2403 46.7657L23.1895 46.837L23.2301 47.0576L23.5926 46.9116L24.1212 47.0576C24.5955 47.1153 25.0156 47.2476 25.4493 47.3766L25.639 47.4478L26.0998 47.6209C26.5029 47.665 26.9129 47.6209 27.2483 47.7804C27.6718 47.8415 28.0208 48.0417 28.468 47.9399L28.6171 48.0417C28.9152 48.0553 29.1456 48.2182 29.376 48.32L29.1185 48.4489L28.9152 48.6967L28.9559 48.7238C29.3184 48.8528 29.7012 48.9104 30.0773 49.0428C30.5381 49.1141 30.9311 49.3482 31.419 49.3754C32.1508 49.6231 32.8927 49.7962 33.6144 50.0439C33.9634 50.1593 34.4106 50.217 34.7358 50.3765L35.0204 50.4817C35.3829 50.5359 35.6303 50.7531 36.0097 50.7701C36.4129 50.8855 36.8195 50.9873 37.2159 51.1162L38.0527 51.3368C38.5812 51.4658 39.1504 51.5676 39.6484 51.7407C40.0008 51.7678 40.3125 51.7271 40.6242 51.8289L41.2882 51.5676V51.3504" fill="white"/>
<path d="M14.7959 49.3907L14.8365 49.5366L14.7417 49.6214L14.0234 49.5637L14.0099 49.3907L14.0912 49.2753L14.6333 49.2142L14.7959 49.3907Z" fill="white"/>
<path d="M34.5458 54.7273L34.4645 54.7002L33.6785 54.3507L32.9738 53.9876L32.286 53.6244L31.5135 53.353C31.1612 53.1901 30.7411 53.1018 30.4023 52.9152C30.0499 52.8134 29.7247 52.698 29.457 52.4774L28.8878 52.2908C28.6032 52.1754 28.3864 51.9854 28.0747 51.9141L27.6546 51.7682L26.8855 51.3915L26.5467 51.1573L26.6416 51.042C27.1023 51.0895 27.414 51.3779 27.885 51.4356L28.0612 51.4933C28.4677 51.6698 28.9285 51.7682 29.291 51.9989C29.6061 52.1007 29.9415 52.2331 30.2125 52.362L30.863 52.698L31.2561 52.9152C31.5813 53.0442 31.9472 53.2036 32.2149 53.3937L32.8145 53.655L33.2042 53.8111L34.0173 54.2624L34.5458 54.6527V54.7273ZM36.2906 55.4807L35.8875 55.1651L35.464 54.7681L34.6136 54.1742C34.2477 53.8586 33.709 53.7127 33.3261 53.3937L32.7976 53.1188L32.5672 53.017L32.2996 52.8541C31.9879 52.8405 31.8659 52.6098 31.6084 52.5521L31.0528 52.3078L30.321 52.0125L29.6874 51.7682L29.1589 51.5544C28.8573 51.3474 28.4677 51.2456 28.1154 51.103C27.7664 51.0589 27.4649 50.8994 27.1396 50.8282L27.1023 50.7807L26.2892 50.7535L26.1368 50.9266L26.0995 51.0895H26.0859L26.1672 51.3779L26.5738 51.741C27.0888 51.9311 27.5733 52.2026 28.0916 52.3756L28.8201 52.681C29.0911 52.9016 29.5349 52.9288 29.8466 53.0883C30.1211 53.353 30.592 53.3326 30.9071 53.5668C31.4051 53.6244 31.6728 53.9604 32.1776 54.0181L32.2149 54.0588L32.8789 54.3778L33.3668 54.5679C33.7869 54.6866 34.1664 54.8563 34.4645 55.1176C34.7762 55.1448 35.0201 55.3212 35.3183 55.3925L35.5995 55.5554L36.2364 55.6232L36.3076 55.5248L36.2906 55.4807" fill="white"/>
<path d="M22.228 57.9461H22.2822L22.3635 58.0615C22.621 58.1939 22.8344 58.3669 23.1461 58.4382L23.4612 58.7131L23.4476 58.876L23.4205 58.9303L23.7153 59.1067C24.0677 59.1644 24.298 59.3409 24.6097 59.4087L24.8266 59.5988L24.935 59.8329L25.0027 59.8872L25.057 60.0196L25.0841 60.2368H25.1112C25.6295 60.8137 25.9175 61.2718 26.4223 61.8317L26.5443 62.0489H26.5748C26.9305 62.5376 27.598 63.067 27.7775 63.6303L27.9266 63.8611C28.1434 64.1665 28.4619 64.6518 28.55 65.0386L28.5907 65.5714L28.6313 65.775H28.6449L28.7126 65.8938L28.7668 66.2976H28.7905L28.8888 66.5284L28.943 66.6472C29.0209 66.9458 29.3733 67.0578 29.4851 67.56L29.5257 67.6483L29.5766 67.8621L29.6071 67.9808L29.6477 68.5747L29.7798 68.9242L29.8645 69.0668L29.9831 69.2297L30.2847 69.4876L30.7319 69.9389L30.7963 70.0713L30.8505 70.6651H30.8234L30.7827 70.8653H30.7691L30.7556 71.069H30.7319L30.742 71.0961H30.7319V71.1266H30.7556L30.7691 71.9377L30.8234 72.6639L30.8911 73.0542L30.9047 73.2306H30.9318V73.3053L30.9487 73.5632L30.9724 73.7091H30.986L30.9724 74.3777L31.1215 74.5779L31.1079 74.8256H31.0808L31.0537 75.0292H31.0266L31.0131 75.1446H30.9995L30.9589 75.3312L30.8098 75.4806L30.6607 75.4059V75.2023H30.6878L30.7319 74.9274L30.7827 74.6525V74.5643H30.8098L30.7963 74.3912L30.4574 74.0858L30.4303 73.9127H30.4574L30.5015 73.7499V73.5327H30.515V73.3596H30.5388L30.515 73.0983L30.4574 72.9693L30.4168 72.8404L30.3761 72.7793L30.3355 72.5927H30.3084L30.2982 72.1142L30.2847 71.8223H30.3084V71.3438H30.2847V70.8246H30.3084V70.5769H30.3355L30.2542 70.112H30.2271L30.1762 70.0102L29.9018 69.7353L29.6206 69.4468L29.3462 69.0973L29.3225 68.9684H29.2954L29.2818 68.836L29.2513 68.4899L29.1463 68.2116L29.1158 67.9944H29.0921L29.0379 67.6754L28.9972 67.5872L28.943 67.4718L28.7262 67.068H28.7126L28.6449 66.9662L28.5229 66.732L28.4822 66.6607L28.3874 66.5284H28.3603L28.3061 66.3859L28.2519 66.1992L28.2383 66.0635H28.2112L28.1705 65.6868L28.1434 65.5171L28.0892 64.9504H28.0621L28.0079 64.8045L27.8724 64.5296L27.7911 64.3531H27.7775L27.7098 64.2513L27.5912 64.0375H27.5776L27.5065 63.9052C27.0965 63.2876 26.9915 62.9957 26.2868 62.4392L25.9751 62.0218H25.9649L25.8531 61.8317C25.3924 61.0682 24.8842 61.075 24.6233 60.2639L24.3522 59.8465H24.3285L23.8678 59.5852L23.1902 59.2798L23.1732 59.1508H23.1461L23.0648 58.9608C22.726 58.9608 22.6616 58.6723 22.4448 58.5536L21.8485 58.221L21.7299 57.8443L21.9027 57.7731L22.228 57.9461Z" fill="white"/>
<path d="M14.5929 71.0115L14.5658 71.4629H14.5387L14.5251 71.5918H14.5116L14.4709 72.0839L14.498 72.1416H14.4845L14.4709 72.6642H14.4438L14.3896 72.8678V72.9119L14.227 72.9696L14.0508 72.8983L13.9288 72.6642L13.878 72.5929L13.8069 72.447L13.7391 72.257L13.6036 72.0703L13.59 72.0262L13.2648 71.5783L13.2004 71.5036L13.0615 71.2287L13.048 71.0998H13.0209L12.9023 70.8961L12.6956 70.8385L12.5872 70.7502L12.4415 70.5466L11.9672 70.1428C11.6419 70.0104 11.4658 69.705 11.005 69.7525L10.4493 69.9256V69.9663L9.73448 69.9392L9.72093 69.8951L9.73448 69.6779L10.2901 69.1722L10.5713 68.9517L10.9914 68.6327L11.3709 68.256L11.8046 67.9064L12.1434 67.6621C12.4415 67.5467 12.6719 67.3431 12.9971 67.2413L13.2648 67.2854L13.4173 67.428L13.5629 67.5908L13.6307 67.7368L13.7798 67.9064L13.8882 68.0388L13.9424 68.1677L14.0102 68.4324H14.0373L14.0949 68.5919L14.1592 68.7752L14.2134 68.9381H14.2405L14.2812 69.1383L14.3219 69.2265L14.349 69.3283L14.4438 69.9086H14.4709L14.5116 70.6213H14.5251L14.5929 70.9708L14.5658 71.0115H14.5929ZM14.8775 70.662L14.8504 70.3159L14.7826 69.9392H14.7962L14.742 69.5896H14.7149L14.6878 69.3148H14.6607L14.6336 69.1858L14.5929 68.8091L14.5387 68.6598H14.5116L14.4303 68.3442L14.3896 68.1542H14.3625L14.3083 67.9064L14.2405 67.7775L14.1863 67.6485L14.1321 67.5298L14.0949 67.489L13.6036 67.0377L13.1293 66.7323C12.6143 66.5864 12.2755 66.963 11.9807 67.1972L11.6961 67.428L11.127 67.6757L10.9779 67.8216L10.8322 67.9675L10.6154 68.1542L10.3409 68.3714C10.0462 68.5173 9.90727 68.8091 9.63961 69.0093L9.51764 69.1383C9.25338 69.4234 9.02299 69.7322 8.75873 70.0274V70.1564H8.78583L8.79938 70.2446L8.98911 70.4923C9.54475 70.6348 10.0868 70.4448 10.5984 70.36L11.1812 70.2446C11.5064 70.1564 11.6148 70.4177 11.8283 70.533L12.1434 70.852L12.5059 71.0998L12.5228 71.1575H12.5499C12.7871 71.5104 13.1157 71.826 13.3224 72.2027L13.4545 72.447H13.4816L13.5087 72.5352L13.5629 72.6336H13.59L13.6612 72.8373H13.6849L13.8204 73.1427L13.8882 73.2275L14.4438 73.5194L14.7149 73.3768L14.742 73.3463L14.7521 73.2139L14.8097 72.576H14.8368V72.318H14.8097V71.8667H14.8368V71.6936H14.8504L14.8605 71.5172H14.891L14.9317 71.2287H14.9452L14.9588 71.0998H14.9724V70.9097L14.8775 70.662" fill="white"/>
<path d="M24.1502 79.4943L24.0553 79.5962L23.7029 79.5351C23.2456 79.1821 22.9 78.7037 22.5239 78.2625L22.4833 78.2184C22.3105 78.0012 21.9175 77.8858 21.5922 77.9299L20.901 77.784C20.5351 77.6958 20.2505 77.913 19.9117 77.8247L19.7898 77.655L19.7762 77.6381H19.7898L19.8033 77.3937L19.8982 77.2919L20.0642 77.1596L20.237 77.0272L20.7655 76.5657V76.5352L20.9146 76.3485L21.3212 75.9108L21.5786 75.697C21.809 75.4323 22.0801 75.2321 22.4833 75.1438L22.944 75.0997L23.3777 75.4798L23.459 75.5816L23.5132 75.6664L23.6487 76.0126H23.6758L23.7165 76.1449L23.7571 76.2196L23.8249 76.3621L23.8656 76.5793L23.8927 76.7795C23.9841 77.1019 23.8757 77.6075 23.9841 77.913L24.0282 78.1471H24.0553L24.0926 78.8122H24.1095L24.1366 79.1584L24.1773 79.3654L24.1502 79.4943ZM24.5974 79.379L24.5398 78.8122L24.5161 78.5374H24.5296L24.489 78.3473L24.4754 78.2896L24.3534 77.7229H24.3399V77.655H24.3534V77.2037L24.3229 76.6098H24.2992L24.2721 76.3485L24.2315 76.2467L24.1773 76.1008H24.1502L24.1231 75.9243L24.0824 75.8565L24.0282 75.7377H24.0146L23.974 75.6529L23.852 75.5205L23.581 75.1574L23.0118 74.6518L22.6052 74.5635C22.202 74.4753 22.0259 74.7807 21.7006 74.8689V74.8825L21.267 75.2015L20.5893 75.87L20.5216 75.9854V76.0431L20.4674 76.1449L20.4132 76.2467L20.0066 76.7388L19.6305 77.0442L19.451 77.3055L19.3866 77.4345L19.1833 77.6822V77.8858L19.2612 78.0012C19.4781 78.2489 19.9795 78.3779 20.359 78.2489L20.8333 78.2625L21.6024 78.2896L21.6159 78.1335H21.6464L21.66 78.2625H21.6329L21.6735 78.3779H21.7548L22.2529 78.5509V78.5781L22.4833 78.7851L22.5408 78.9005L22.7712 79.2195L22.8221 79.2907L23.0389 79.5826H23.066L23.2964 79.8133L23.9469 80L24.5025 79.8982L24.5974 79.7115H24.6245V79.379H24.5974V79.379Z" fill="white"/>
<path d="M67.5766 46.07L67.5902 46.1854L67.685 46.708L67.7257 46.8845L67.7528 47.1424H67.7799L67.8477 47.4173H67.8748L67.9019 47.7091H67.929L67.9561 47.8822H67.9832L67.9967 47.9976L68.1187 48.4489H68.1323L68.1458 48.622L68.2 48.9545H68.2271L68.2542 49.1853H68.6405L68.6303 48.9987H68.6032L68.593 48.8663L68.5524 48.622H68.5219L68.4846 48.4489H68.4711L68.4168 48.2724L68.3762 48.0858L68.3491 47.7668H68.322L68.2779 47.5937H68.2678L68.2136 47.4037L68.2 47.2171L68.1594 47.1424L68.0611 46.6368L68.0509 46.4603H68.0238L67.9967 46.2737L67.9561 46.1718L67.9019 46.0293H67.8748L67.8477 45.8393H67.8206L67.7799 45.6323L67.6715 45.3744L67.6173 45.2013H67.5902L67.5224 44.9841L67.4682 44.8653L67.414 44.75L67.3462 44.5905H67.3327L67.2649 44.2715H67.2378L67.1701 43.983L67.1158 43.8201L67.0616 43.7183H67.0345L66.9702 43.5181L66.9126 43.3891L66.8177 43.1414L66.7635 42.9955H66.7398L66.6686 42.6901L66.6144 42.5611H66.5873L66.5365 42.3575H66.5094L66.4382 42.0826L66.384 41.9808L66.3298 41.8654H66.3061L66.235 41.6618L66.1841 41.4752L66.1265 41.3293L66.0181 41.051L65.9673 40.8949L65.886 40.6879H65.8589L65.8453 40.5454L65.8013 40.3859L65.7369 40.0804H65.72L65.6793 39.8666L65.6421 39.792L65.598 39.663H65.5709L65.5336 39.4425H65.5201L65.4896 39.3271L65.4523 39.1235L65.3981 38.964H65.3676L65.3033 38.7468L65.2457 38.6178L65.0288 38.2683L64.8696 38.0816L64.6392 37.7457L64.6663 37.4878L64.7036 37.3113H64.7205L64.7036 37.1247L64.5714 36.8023L64.5172 36.6597H64.4901L64.463 36.5715H64.4359L64.3682 36.4426H64.3411L64.314 36.3543H64.2868L64.192 36.1813C63.6059 35.3906 63.2874 34.6508 62.8266 33.8465L62.6911 33.5682H62.6606L62.5386 33.368C62.2473 33.0083 61.983 32.5875 61.5934 32.3364L61.241 32.0479L60.7531 32.221L60.8345 32.4551L61.363 32.7606L61.9322 33.2357L62.1897 33.5004L62.5657 33.877L62.4438 34.0331L62.2439 34.2368L62.1626 34.3216L62.1219 34.3691L62.1626 34.5116L62.2032 34.5591L62.7555 34.7594V34.7865H62.7826C63.1519 35.2311 63.4805 35.7129 63.8125 36.1948L63.8667 36.3238H63.8938L64.0971 36.6597V36.8192H64.07L64.0463 37.0093H64.0158L63.8667 37.2265L63.8396 37.2536L63.8532 37.3249L64.0294 37.6439L64.3275 37.9527L64.3411 37.9934L64.7341 38.4447L64.8018 38.5873H64.8289L64.9645 38.9232L65.0288 39.0081L65.1 39.2253H65.1271L65.1677 39.4289L65.1948 39.6461L65.2457 39.8938L65.3168 40.0227L65.3981 40.1822H65.4117L65.4523 40.3587H65.476L65.5201 40.6472H65.5065L65.5336 40.8643H65.5607L65.598 41.0374L65.6421 41.1256L65.6793 41.3293L65.7369 41.4752L65.8148 41.5906L65.886 41.7636H65.9097L65.9673 42.008C66.0927 42.3575 66.2824 42.6935 66.4281 43.0668L66.4653 43.3009H66.4924L66.5365 43.5045L66.6144 43.8201H66.6449L66.6686 44.0237H66.6957L66.7635 44.2715H66.7906L66.8482 44.431L66.899 44.5463L66.9702 44.7092L67.021 44.8518H67.0481L67.187 45.1402L67.2649 45.3608L67.3191 45.4897H67.3462L67.4275 45.7205L67.4818 45.8529L67.5495 46.07H67.5766Z" fill="white"/>
<path d="M26.4246 18.7221V18.8681H26.3975L26.384 18.997H26.3704L26.3298 19.1395L26.2485 19.2414L26.0181 19.506L25.5031 19.3296L25.354 19.1395L25.2761 19.0581L25.2185 18.9122L25.1778 18.8239L25.1236 18.6203H25.1541V18.4744H25.1677L25.1778 18.1554L25.2761 18.0129L25.4082 17.8262L25.9774 17.6905L26.262 17.9688L26.3433 18.2029H26.3704L26.4382 18.5626L26.4517 18.7221H26.4246ZM26.7634 18.3862L26.7228 18.04L26.6686 17.9416L26.5601 17.7787L26.5466 17.7516L26.4246 17.6362L26.2078 17.4292C25.9774 17.2867 25.6522 17.4462 25.354 17.3749L25.1101 17.5616L24.9746 17.738L24.8424 18.04H24.8289L24.7848 18.2301H24.7577V18.5185H24.7848L24.8289 18.9122H24.8424L24.9102 19.2278L24.961 19.3737H24.9881L25.083 19.5909L25.354 19.6384L26.1942 19.7232L26.3433 19.6045L26.5466 19.316L26.6008 19.2278V19.2006L26.7499 18.9122H26.777L26.7634 18.3862Z" fill="white"/>
<path d="M48.2453 21.4336V21.4472L48.0285 21.23L47.9336 21.1451L47.7033 20.8397L47.6897 20.7956L47.2696 20.402L46.88 20.0728L46.4057 19.6486L46.3243 19.5332H46.2972L46.2837 19.4925L46.2024 19.3601L46.758 19.6214C47.256 20.2017 47.71 20.3986 48.1505 20.8805L48.2182 21.0841H48.2453L48.2725 21.4065L48.2453 21.4336ZM47.9201 22.8555L47.7575 22.8148L47.7846 22.7401L48.0014 22.6655L48.015 22.6926L47.9201 22.8555V22.8555ZM36.6854 21.2164L36.6007 21.0162L36.9971 20.8669L37.0479 21.1451L36.6854 21.2164ZM34.0157 21.42L33.8937 21.5931L33.3008 21.9867L32.4199 22.3329C31.9083 22.4177 31.556 22.679 31.0918 22.8283L30.4142 23.015L29.6587 23.4358L29.4825 23.5342C28.998 23.636 28.561 23.8396 28.1984 24.0873L27.3582 24.4505C26.684 24.9052 26.0369 25.4108 25.5693 26.1031L25.3966 26.2898L24.8274 26.1031L24.6749 25.8588L24.6241 25.74L24.4445 25.5228L24.4208 25.4346H24.3937L24.2582 25.2344L24.1362 25.0036L24.0684 24.8271L23.96 24.6269L23.9194 24.4505H23.8923L23.8381 24.3045L23.8245 24.2027H23.7974L23.7568 23.972L23.7161 23.7378H23.689L23.6754 23.5342L23.6619 22.8555L23.689 22.6383L23.6619 22.3634V21.8544H23.6754L23.7161 21.6813V21.1587H23.689V20.8092H23.7161L23.6754 20.5038H23.6619L23.6212 20.29H23.5941V19.9981L23.689 19.9269L24.0109 19.764L24.0684 19.6791L24.1498 19.5638V19.3025H24.1904V19.1701H24.2175L24.2277 18.9088H24.2446L24.2277 18.6068L24.1362 18.1588L23.9465 17.9247L23.6619 17.8229V17.5921H23.6754L23.689 17.4326H23.7161L23.7432 17.2426H23.7703L24.0956 16.6792L24.1498 16.5503L24.2175 16.4621L24.3361 16.2415L24.4208 16.1532L24.4445 16.0107H24.475L24.4344 15.8071L24.3937 15.7494L24.3124 15.6205L24.2446 15.4745H24.2582V15.3727H24.2717C24.2446 14.9961 24.3361 14.6635 24.2717 14.3004L24.2988 14.2868L24.2853 14.2121H24.2988L24.2717 13.8219H24.2446L24.2175 13.6047H24.1904L24.1362 13.3434L24.1227 13.228H24.0956L24.0684 13.0074H24.0413L24.0278 12.6918C23.9465 12.3728 24.0007 11.8944 23.9871 11.5007L24.0109 11.0222H24.0278L24.0684 10.8933V10.3978H24.0956L24.1362 10.1094H24.1498V9.8752L24.204 9.84805L24.3124 9.93628C24.492 10.374 24.6749 10.8084 24.9222 11.2089L25.0273 11.572H25.0442L25.1086 11.8061H25.1357L25.1933 11.9215L25.2034 11.9826L25.2305 12.1828L25.2441 12.1964H25.2305V12.6172H25.2034L25.1662 12.9396L25.1933 12.9531H25.1662L25.1933 12.9667H25.1662V13.0685H25.1933V13.1092H25.1662V13.3977H25.1526L25.1357 13.7065H25.1086L25.1357 14.1714H25.1086V14.4293H25.0849L25.0713 14.9655H25.0578V15.3592H25.0849L25.1662 15.444L25.4474 15.1827V15.1284H25.4609V14.806L25.505 14.3139V14.185H25.5185L25.505 13.7947V13.5742H25.5185L25.5287 13.2959H25.5558L25.5998 13.038V12.7326H25.6134L25.6269 12.3287H25.6405L25.6269 12.3118H25.6405L25.6778 11.5584H25.6913L25.7354 11.2971V11.1817H25.7591L25.7997 10.9781H25.8133L25.8539 10.7609H25.8675L25.9081 10.4283H25.9386V9.96343H25.9081V9.75982H25.9386L25.9251 9.74624H25.9386L25.9624 9.54263H25.9895L26.0166 9.30848H26.0437L26.0843 9.12183H26.0979L26.1385 8.96573L26.2063 8.90464L26.4502 9.21006L26.4909 9.35599L26.5722 9.48494L26.6264 9.58675L26.6942 9.80733H26.7077L26.7755 9.93628L26.8161 10.0822L26.8568 10.184L26.8974 10.4419H26.911L26.9652 10.5743L27.0059 10.6286L27.0601 10.7609L27.1278 10.9781H27.1549L27.182 11.141H27.2091L27.2735 11.3107L27.4124 11.5448L27.4666 11.7043L27.4802 11.8333H27.5073L27.5344 12.1115H27.5615L27.5886 12.5289C27.6123 12.9701 27.636 13.4791 27.9376 13.8219L28.1849 14.0832C28.3983 14.3275 28.6152 14.5617 29.0217 14.6499L29.5909 15.0266L29.9839 15.3727L30.0788 15.5594H30.1059L30.1601 15.6612C30.3905 16.082 30.5091 16.496 30.7835 16.8659L30.919 17.0084C31.6915 18.5084 31.3798 17.7652 32.3928 18.7934L32.5419 19.014L32.7994 19.5196H32.8129L32.8807 19.7233L32.9349 19.9269H32.962L33.0298 20.1882H33.0569L33.1111 20.3036L33.2195 20.5038L33.2601 20.592L33.2737 20.6361L34.0157 20.9958L34.0868 21.2877L34.0157 21.42ZM23.4857 19.5332L23.4179 19.4178L23.3773 18.9088L23.4044 18.6916H23.4179L23.462 18.5185L23.567 18.3421L23.689 18.186L23.7432 18.2606L23.811 18.3421L23.567 18.807L23.6754 18.9563L23.7974 19.0683L23.8652 19.1158L23.8516 19.2855H23.8245L23.7025 19.462L23.4857 19.5332ZM3.62854 63.6594L4.14351 63.3133C4.50603 63.0927 4.90243 62.9027 5.26495 62.6719L5.48178 62.8212L5.49533 62.9197L5.52244 63.2251L5.58003 63.6459H5.5902V64.0802H5.58003L5.54954 64.6164L5.58003 64.7488H5.5902L5.64441 64.9795L5.65796 65.1662H5.68506L5.69862 65.8652L5.75282 66.4455L5.80703 66.8901L5.82058 66.9105H5.80703L5.83414 66.9512H5.80703L5.82058 66.9783H5.80703L5.77993 67.1989L5.71217 67.2702L5.6173 67.2566L5.41402 66.9512L5.38692 66.8901L5.18364 66.5134L5.0244 66.3268L4.90243 66.0689H4.88549L4.76352 65.8652L4.69915 65.8042C4.59073 65.5768 4.26548 65.5564 3.96395 65.5768C3.58788 65.6175 3.30328 65.76 2.95093 65.8483L2.50371 66.0824L1.82611 66.415L1.63638 66.3709L1.60928 66.2555H1.62283L1.66687 65.9942L1.73125 65.8483L1.78545 65.76V65.6447L1.87016 65.5564L1.96163 65.2985H1.97857L2.01584 65.1662C2.82219 64.0327 2.53082 64.854 3.24908 63.9784L3.62854 63.6594V63.6594ZM40.8527 19.5468L40.8967 19.5196L41.0831 19.3737H41.6387V19.462L41.4659 19.6079L40.8527 19.6961V19.5468ZM62.3903 32.5848C62.0549 32.2794 61.7398 31.9468 61.4857 31.5973L61.3062 31.0339L61.1029 30.871L61.0249 30.7285L60.9572 30.4401L60.4287 29.7274C60.1068 29.4967 59.9408 29.1064 59.5647 28.9299L59.1175 28.5668L59.0226 28.4243L59.0599 28.353L59.1412 28.2173V28.0035L58.5754 27.5522L58.2874 27.2603L57.5726 26.6698C57.2338 26.5069 56.9085 26.3203 56.5019 26.3203C56.136 26.1608 55.7024 26.1167 55.3636 25.8859L54.6487 25.55L53.9575 25.1054L53.673 24.8713L53.6323 24.6676L54.3912 24.8407L54.852 24.8136L54.8791 24.6269L54.7842 24.4946L54.1879 24.3351L53.5645 24.2468L53.0394 23.8396L53.1614 23.7514L54.0422 23.9143L54.3641 23.972C54.6623 24.0432 54.9604 24.1892 55.2857 24.1484L55.7837 23.9991L55.7159 23.8702C55.0383 23.8125 54.4725 23.4935 53.822 23.4086L53.1851 23.1575L53.4866 22.998C53.8762 22.9573 54.215 23.0863 54.5674 23.0863C55.2179 23.1575 55.7837 23.3747 56.3529 23.6224L57.0576 23.9584L57.2744 23.8396V23.6089L57.0982 23.4629L56.5019 23.015C56.1496 23.0863 55.9768 22.7265 55.6109 22.7944C55.0553 22.7265 54.5132 22.5501 53.9338 22.6078L53.2562 22.506L53.1614 22.377L53.2562 22.2888L53.8085 22.248C54.1066 22.2005 54.4048 22.2005 54.7165 22.1734C55.1772 22.1021 55.7159 22.1293 56.1767 22.2175L56.258 22.1598V22.0139C55.638 21.739 54.9333 21.8985 54.2557 21.8374L53.4426 21.8849L53.3613 21.7831L53.9575 21.4472C54.3099 21.247 54.7707 21.2164 55.0959 20.9551C55.4212 20.8092 55.7972 20.7956 56.1496 20.7685L56.8408 20.273L56.895 20.1746L57.0745 19.8386L57.2202 19.5943L57.2609 19.333H57.2744L57.288 19.143L57.3015 18.9699L57.3422 18.505L57.3557 18.0401L57.3964 18.0265L57.3557 17.7211L57.3964 17.548V16.9677L57.3693 16.9405C57.3557 16.6487 57.3693 16.2143 57.3557 15.8377L57.4235 15.6612L57.3964 15.3592L57.4235 14.8196L57.4506 14.4429L57.4777 14.4293C57.4777 14.0662 57.4912 13.7337 57.5048 13.3841L57.4777 13.228C57.3828 12.7258 57.4608 11.3548 57.3557 10.7779L57.3015 10.4555C57.3286 10.1365 57.2473 9.87519 57.2744 9.5562L57.2202 9.42725L57.2473 9.10825L57.2202 9.09468L57.1931 8.50081L57.1524 8.38543L57.0982 8.28362V7.94767L57.0745 7.93409L57.0305 7.5099L56.9356 7.30968L56.9085 7.01783L56.8679 6.71581L56.8408 6.33913V5.59934L56.8001 5.58576L56.8272 5.55522L56.8001 5.54165L56.8272 5.33803H56.8136L56.8001 4.85954L56.773 4.84257L56.7493 4.39802C56.5731 3.46819 56.5223 2.54175 56.2174 1.64247L56.0988 1.26578C55.9497 0.929821 55.9328 0.424184 55.6888 0.145913L55.4212 -6.5812e-06L54.6995 0.162878L54.6216 0.322378L54.5132 0.437759L54.4048 0.624399L54.2963 0.75336L54.1202 1.06217L53.8762 1.55424L53.6458 2.04629L53.5103 2.27706L53.3613 2.55193L53.2698 2.67071L53.1851 2.79966C53.0529 3.1492 52.765 3.37996 52.5786 3.68537L52.4533 3.90596L52.1856 4.30979C51.2539 6.06425 50.3832 7.8255 49.4786 9.57317L49.3837 9.74624L49.3295 9.92271C48.784 12.3355 47.8761 13.9033 46.758 16.0854L46.7275 16.2143L46.6055 16.4146L46.6733 16.6046L46.7275 17.419C46.9308 17.7346 47.2425 18.0129 47.4729 18.3014L47.7575 18.678C47.8896 19.1497 48.3436 19.5468 48.2996 20.0728V20.2289L47.9608 20.0592L47.5135 19.7097C47.256 19.4043 46.88 19.1565 46.4836 18.997C46.3243 18.8545 46.1888 18.5321 45.8771 18.678L45.7552 18.9088L45.6332 18.997L45.4435 19.2448C45.806 19.6215 46.3243 19.8828 46.714 20.2289L47.2425 20.6938L47.7575 21.2741L48.2047 21.5795L48.2453 21.7221L48.286 21.9257L48.2453 22.0275L48.1369 22.1157L47.8659 21.9698L47.3238 21.5354L46.9613 21.2028C46.6631 20.9551 46.2972 20.8092 45.9855 20.5649L45.4943 20.6667L45.8195 20.9823C46.1211 21.247 46.5141 21.3759 46.8224 21.6236L46.9172 21.8103L46.7716 21.7831C46.1448 21.7221 45.579 21.4947 44.942 21.42C44.6303 21.4336 44.3999 21.2164 44.0747 21.2605C43.6986 21.0569 43.2209 21.1723 42.8448 20.9823L42.7872 20.9144L42.6009 20.8092C42.1808 20.8805 41.7742 20.8669 41.344 20.8974L41.056 20.8397L40.5715 20.6192L40.5952 20.29C40.6494 19.8963 41.1644 20.1407 41.3677 19.8828C41.7912 19.8692 42.0724 19.5332 42.4925 19.5332L42.6009 19.316L41.964 19.2448L41.9911 19.1837L42.113 19.0683L42.7872 18.807L42.7229 18.678L42.4383 18.7222L41.9369 18.9258C41.5743 18.9088 41.2593 18.9835 40.8967 18.997L40.6494 18.8375L40.3818 19.204C40.2903 19.4246 40.5308 19.5502 40.3275 20.0864L40.2462 20.7074L39.8363 20.8092C39.406 20.8974 38.9723 20.8669 38.5522 20.9687L37.8509 21.0705L37.7256 20.6192L37.712 20.3612L37.756 20.0728L37.7798 20.0592L37.756 19.4484L37.7798 19.3601L37.756 19.2583L37.7798 18.997L37.8509 18.8681L37.878 18.6373L37.9017 18.3624L37.9288 18.1588L37.8882 18.0401L37.8204 17.7346L37.7425 17.548L37.7256 17.1713L37.0479 16.72L36.6177 16.3874C36.3161 15.8071 36.3636 15.4406 36.5093 14.8196L36.5635 14.6906L36.6583 14.504C36.865 13.9542 37.0717 13.4181 37.214 12.8513L37.2512 12.6036L37.4172 11.8468H37.4308L37.4443 11.7043L37.4952 11.4159C37.7594 10.5437 38.1186 9.73267 38.4065 8.8775L38.4845 8.68746L38.5116 8.54153C39.2739 6.39342 39.8939 5.79955 41.0052 4.04849L41.4896 3.45462L41.8149 3.1492L41.964 3.29173C42.1435 3.92632 42.2486 4.57788 42.3705 5.21925L42.3434 6.03371L42.3163 6.04728L42.3976 6.22375C42.4789 6.85834 42.5569 7.48954 42.5874 8.12413L42.6009 8.62977C42.689 9.04378 42.7229 9.18631 42.7872 9.63086L42.8448 9.78696V10.2112L42.8719 10.2247C42.8448 10.6014 42.9262 10.8933 42.8991 11.2699L42.9262 11.4702L42.9905 11.6602V12.1828L42.9397 12.4271L42.9262 12.7902L42.8991 12.9056L42.8719 13.2687L42.8448 13.2959L42.8313 13.6454L42.8448 14.0085L42.8719 14.0968L42.9262 14.2257L42.9533 14.6635L42.9905 14.7924L43.0481 14.9214L43.0752 15.1691L43.1261 15.315L43.1565 15.9395H43.143L43.1125 16.2279L42.8719 16.8082C42.6145 17.1408 42.235 17.4598 41.7336 17.4462L41.0323 17.7821L40.6799 18.1283L40.6494 18.3285L40.7172 18.4303L40.7307 18.6509L40.8832 18.7391C41.1779 18.6509 41.4896 18.6068 41.7912 18.505L42.235 18.4167L42.7229 18.3285L42.0317 18.1113L41.7336 18.1283L41.7065 18.0401L42.3841 17.6769C42.6822 17.4869 42.9668 17.2867 43.2209 17.0424L43.3598 16.7946C43.6173 16.5299 43.5326 15.9395 43.5224 15.5933V15.3456L43.4818 15.142L43.4242 14.9214V13.8355L43.4005 13.8219L43.3293 13.5877V12.7054L43.3734 12.6918V12.3728L43.4005 11.8333L43.3734 11.6738L43.3056 11.4566V10.4996L43.3293 10.486L43.3056 10.3537C43.3768 9.5562 43.1565 8.79944 43.1261 8.02232L43.0989 7.80514C42.9228 7.28932 43.0956 7.12304 42.8991 6.71581L42.8719 6.36628L42.8042 6.16266C42.8448 5.84706 42.7635 5.58576 42.7872 5.25319L42.75 4.99189C42.645 3.6718 42.4281 3.74307 42.2621 2.79966L42.1943 2.61302L41.6116 2.59944L41.3304 2.91504L40.8832 3.33924L40.8391 3.39354L40.8154 3.55642L40.7307 3.69895L40.5444 3.94668L40.1751 4.54055L39.8939 4.89008C39.3687 5.35839 39.3315 5.92511 38.8097 6.55631L38.7826 6.71581L38.7013 6.90245C38.4235 7.83228 37.9322 8.62638 37.7256 9.49852L37.5765 9.80733L37.5528 9.96343L37.4681 10.167L37.4037 10.2519C37.1089 11.3208 36.7769 11.5889 36.6583 12.8208L36.6177 13.1262L36.5635 13.228C36.5228 14.0832 35.669 15.2166 36.0078 16.0107L36.0756 16.1872L36.1569 16.3433L36.3331 16.6487C36.5364 16.9948 36.9836 17.0254 37.2953 17.2731L37.5765 17.5073L37.3359 17.9824L36.926 17.8093C36.5093 17.7346 36.2247 17.4326 35.8859 17.2562L35.1134 16.9948L34.8186 17.1272L35.171 17.4326C35.4962 17.4598 35.8045 17.5751 36.0078 17.7957L35.7232 18.0706L35.5199 18.3285L36.2789 18.376C36.6312 18.4778 37.0784 18.4032 37.3596 18.6916L37.2953 18.9088L36.4415 18.9835L36.0383 19.1294L35.9807 19.2312L36.4788 19.204L37.2275 19.2312L37.2648 19.5332L37.092 19.7233C36.7532 19.7979 36.4008 19.8386 36.0756 19.9269L35.9807 20.1135L36.1704 20.1746L36.9565 19.9404L37.2377 20.0117V20.3036L36.97 20.592L36.3602 20.8974L35.6047 21.2028L35.049 21.5218L34.7373 21.549L34.761 21.23L34.7881 21.0569L34.7475 20.8669L34.6967 20.7074L34.3037 20.5038L33.6125 20.3748L33.5854 20.2425L33.5312 20.0422L33.2872 19.3737L33.2466 19.3025L33.1246 19.0683C33.0027 18.6373 32.6503 18.3896 32.3657 18.0842L31.8507 17.6769C30.9766 16.5537 30.9529 16.0073 30.2279 14.9791L29.5774 14.3852C29.0624 14.1986 28.561 13.9508 28.2391 13.53L28.212 13.3434L28.1849 13.1534L28.1171 12.9667L28.1036 12.5289L28.0324 12.2846V12.2405L28.0595 11.9351L28.0087 11.7925L27.9511 11.6738L27.9003 11.443L27.8291 11.3548L27.7512 11.0663L27.6835 10.9781L27.5988 10.7609L27.4531 10.5301L27.3819 10.2994L27.3718 10.1094L27.2905 9.96343L27.0601 9.35599L26.8161 8.9318L26.7484 8.73157L26.6942 8.54153L26.6264 8.41258L26.518 8.10716L26.4502 7.99517L26.1555 7.92052L25.9624 8.10716C25.61 8.62298 25.5389 10.4623 25.4101 10.9204L25.2746 10.9781L25.095 10.6625C24.8579 10.1399 24.6885 9.73606 24.5021 9.21006L24.204 8.81641L23.9871 8.86392L23.9194 9.05057L23.8652 9.32884L23.8245 9.51548L23.7703 9.84805L23.7161 10.0517L23.6754 10.7304L23.6483 10.7473V11.0663L23.5941 11.3548V12.0505L23.6212 12.064L23.5941 12.1523V12.7326L23.6212 12.7495L23.6483 13.1975C23.7432 13.5165 23.8313 13.8185 23.9194 14.1409L23.8787 14.4429C23.9194 14.8196 23.8381 15.142 23.8652 15.5187L23.8923 15.7494H23.9024V16.1872C23.1096 17.5921 23.3536 17.1951 23.1469 18.376L23.1367 18.824L23.0927 18.8545L23.1367 19.0819C23.1435 19.5434 23.2485 20.0932 23.296 20.592L23.3536 20.8262C23.3536 21.1587 23.3231 21.3454 23.3366 21.6949L23.296 21.7085L23.2689 21.9257C23.1435 22.6044 23.0961 23.2967 23.3536 23.9584L23.462 24.4369H23.4722L23.5535 24.7423L23.7974 25.3192L23.9465 25.6246L24.1769 26.0454L23.8245 26.4662L23.5264 26.7988L23.3095 26.7411L23.296 26.7852L23.2147 26.7411L22.9301 26.9854L22.8623 26.7411L22.8928 26.4391L22.6895 26.3203L22.4456 26.6834L22.2931 27.0601L22.2118 27.2196C21.6528 27.6506 21.4631 28.5091 21.0226 29.1064L20.8735 29.3066L20.8193 29.4695C20.6432 29.9175 20.4026 30.3213 20.1993 30.7557L19.9825 31.1052L19.8876 31.3699L19.7894 31.4988C19.044 32.5916 18.5866 33.8506 18.3969 35.1944L18.3291 35.398L18.302 35.8188H18.2885L18.2716 35.9647L18.2478 36.1073L18.1936 36.2396L18.1665 36.6163L18.0988 36.7453L17.6786 37.3391L17.2992 37.5597L16.7842 37.7905C16.1202 37.9059 15.5002 38.1672 14.8903 38.3843L14.6464 38.571C14.2127 38.588 13.9993 38.9205 13.7113 39.1377V39.1818L13.63 39.3142L13.6062 39.528L13.508 39.718L13.4843 40.1693V40.4442L13.508 40.6343L13.5487 40.8481L13.5351 41.2417L13.3996 41.5335L13.1455 42.1546L13.0506 42.5448L13.0235 42.6059L12.8067 43.0573L12.6271 43.0233L12.1697 43.0369V43.0233L11.7767 42.8367L11.2482 42.9521L11.2753 43.1557L11.465 43.2575L12.207 43.4747L12.7491 43.736L12.8338 43.8955L12.9015 44.1568V44.6352L12.871 44.7676L12.7796 44.8965C12.373 44.9508 11.9936 45.0696 11.6141 45.1579C11.1262 45.2868 10.7197 45.5345 10.2453 45.6906L9.48642 46.0402L9.47626 46.2302L9.55757 46.4338L10.2453 46.2302L11.089 45.8264C11.6276 45.6771 12.1155 45.375 12.6983 45.314L12.7796 45.4463L12.8202 45.6228L12.7796 45.84L12.7254 45.9689L12.6983 46.1284L12.6271 46.2438L12.5763 46.461L12.5492 46.6816L12.495 46.78L12.4238 46.9972L11.8851 47.3738L11.6819 47.6657L12.4001 47.591L12.6983 47.8829L12.7254 48.2019L12.7796 48.3478L12.8338 48.5209L12.9015 48.6227L12.9286 48.9247L12.9795 49.057L13.0235 49.2606L13.0743 49.3896L13.1319 49.5661L13.2268 49.712L13.159 49.9156C12.888 50.0446 12.5898 50.1735 12.2646 50.204L11.7632 50.3907L11.5599 50.5672L11.5057 50.7979L11.5599 51.1746L11.6005 51.3036L11.5599 51.3171L11.2753 51.7108L11.0449 52.2062L10.8586 52.5354L10.4757 53.0614L10.0421 53.2922L9.4356 53.8691L9.23232 54.1473L9.19166 54.2627L9.13745 54.3951L9.05275 54.5376L8.52761 54.9889L8.33788 55.3385C8.20236 55.7559 7.73143 55.9154 7.52815 56.2785C7.42989 56.5975 7.02333 56.6246 6.88781 56.9029C6.53884 57.1201 6.32201 57.4391 6.01031 57.6834L5.50889 58.0771L5.0244 58.3078L5.22429 58.6574L4.92954 59.0646C4.60429 59.2648 4.3739 59.5125 4.17062 59.8044L3.94023 60.0928L3.96395 60.2218L4.07237 60.5849L4.02154 60.6731L3.53028 61.2365L3.3846 61.4401L3.15421 61.8167L3.11356 62.0204L3.18132 62.1357L3.15421 62.3835L2.86962 62.7873L2.707 63.052L2.55792 63.2658L2.54437 63.4694L2.47661 63.7307L2.3953 63.992L1.88371 64.5859L1.77529 64.7488L1.71769 64.8913L1.31452 65.4716L1.16206 65.8211L1.13834 65.906L1.09769 66.1232L1.04009 66.2691L0.98927 66.4727L0.945224 66.8358L0.931673 67.355L0.894406 67.4432L0.945224 67.6333L0.606424 68.0541C0.386203 68.7905 0.315054 68.6276 0.108385 69.14L0.159206 69.2282C0.389591 69.6389 0.223578 70.718 0.0135206 71.1422L-3.05176e-05 71.4171L0.13549 71.5053L0.25746 71.2881L0.311667 71.0268L0.338769 70.7927L0.406531 70.6773L0.460739 70.5212L0.514946 70.287L0.487844 69.7644L0.542052 69.6049L0.606424 69.4149L0.691124 69.2418L0.867301 69.0111V68.8074L0.85036 68.6208L0.894406 68.4885L1.36534 67.9082L1.66687 67.5892L1.7448 67.4568V67.4025L1.51441 67.0089L1.59573 66.9512C1.94808 66.8358 2.27333 66.6016 2.66634 66.5745C3.0458 66.398 3.46591 66.0078 3.92668 66.2555L4.61445 66.8053L4.76352 67.0258L4.82112 67.1819L4.87194 67.3279L5.37336 67.8063L5.86124 67.7351L6.10518 67.3414L6.15939 67.1412L6.21359 66.9512L6.28136 66.7917V65.8211L6.23731 65.5564L6.21359 65.3562L6.18649 64.9931H6.15939V63.052L6.10518 62.8755L6.03742 62.716L6.01031 62.5735L5.79348 62.1799L4.98035 62.3394L4.84483 62.4581L4.14351 62.8348C3.85553 62.9773 3.65225 63.2828 3.33039 63.2997L3.45236 62.9502L3.56078 62.6583L3.61498 62.4412L3.6387 62.1663C3.94023 61.9796 4.15707 61.6878 4.46877 61.5011L4.51958 61.3688L4.22483 61.3383L4.02154 61.3824L4.09947 61.2534L4.61445 60.6731C5.00746 60.4831 5.15653 60.1336 5.45468 59.8756L5.5631 59.4684L5.22429 59.4413V59.3666C6.44398 58.3078 6.31523 57.6291 8.12105 56.4685L8.85286 55.7287C9.15101 55.7152 9.19166 55.4097 9.42205 55.3045C9.83877 54.7989 10.5604 54.6699 11.1127 54.2627C11.6141 53.9573 12.1833 53.8148 12.7796 53.6994L13.674 53.4652L14.1178 53.377L14.1449 53.6994L14.3516 53.7673C14.7683 54.0014 15.2562 54.205 15.7814 54.1609C16.0829 54.0455 16.5674 53.9878 16.7978 54.2322C17.1366 54.3204 17.3127 54.6089 17.6786 54.6564L18.2478 54.8464L18.8035 55.2774L19.2473 55.6677C19.4912 55.9459 19.8978 56.0443 20.1146 56.3667L20.6466 56.7129L21.1175 56.9742C21.4563 57.1337 21.6867 57.4255 22.0526 57.5545L22.3372 57.4934L22.161 57.1201L21.4834 56.7706L20.6466 56.2479C20.2908 56.0443 19.9385 55.8 19.6708 55.5387L19.0305 54.9889L18.3291 54.4799C17.9768 54.4222 17.6651 54.2186 17.3263 54.1168C17.0586 54.032 16.8418 53.8419 16.5403 53.7842L15.8661 53.7537L15.2698 53.4924C14.9581 53.567 14.9445 53.2175 14.6735 53.1768C14.3347 53.1462 13.9688 53.1021 13.6164 53.1462C13.2539 53.1021 13.01 53.4517 12.6542 53.2922C12.3595 53.3057 12.102 53.4517 11.8174 53.4652C11.4379 53.6112 11.089 53.7537 10.7637 53.9878L10.2352 54.2627L9.66598 54.3951L9.69309 54.205C9.89637 53.8283 10.3436 53.713 10.6383 53.3906L10.7637 53.377L11.1262 52.9596L11.1804 52.7831L11.2482 52.6847L11.4921 52.3929L11.858 51.8567L12.3459 51.3918L12.4679 51.0999L12.6542 50.8251L12.7254 50.5672C12.9795 50.333 13.3759 50.3466 13.6876 50.2312L13.7519 50.1158L13.5487 49.7968L13.674 49.4032C13.3793 48.3037 12.8372 47.8014 12.9795 46.4033L13.0506 46.2709L13.0743 46.0707L13.1319 45.9112L13.159 45.7246L13.2268 45.5617V45.2461L13.281 44.9984L13.3352 44.547L13.3996 44.4045V44.0685L13.3352 43.8955L13.281 43.6918L13.3047 43.5154L13.3623 43.2405L13.3488 43.0708H13.3623L13.3759 42.8944C13.7621 42.219 13.552 42.3073 13.796 41.822L14.1348 41.4012L14.0399 41.1094L13.9552 40.7632L13.9179 40.0065L14.2534 39.1988L14.7277 39.0698L15.3341 39.4126C15.7305 39.4872 15.9203 39.8639 16.1913 40.054L16.2591 40.1693L16.459 40.5019L16.5538 40.7462L16.5166 40.8073V41.2417L16.6385 41.3741L16.9875 41.2587V40.6614L16.9062 40.4442L16.8418 40.2542L16.7198 40.0234C16.503 39.7621 16.2726 39.4872 15.9745 39.2972L15.7814 39.1377L15.2427 38.778L15.7712 38.442L15.9745 38.5167L15.9982 38.6592C16.3133 38.9952 16.6114 38.4285 16.9875 38.5303L17.0824 38.7203V38.8798L17.3669 38.8934L18.2716 38.9511C18.6544 39.1682 18.0581 39.2395 18.1259 39.5008L18.8983 39.7485L18.8577 39.8775L18.7764 40.0065L18.8035 40.1388L19.2609 40.3017L19.4133 40.1693L19.0576 39.8232L19.1287 39.5619L19.1524 39.5449L19.1287 39.4465L18.6544 38.7916L18.5189 38.6049L18.0717 38.442L17.7464 38.1807L17.8006 37.7769L18.5189 37.1966L18.7188 37.2984L18.9221 37.2237L18.9492 37.1389L18.9796 36.6435L19.0305 36.5586L19.0576 36.3143L19.1287 36.0496L19.1524 35.8358L19.21 35.7476L19.2473 35.5134L19.3049 35.3709L19.2609 35.1367L19.0576 35.2826L19.0068 35.4116L18.9796 35.6152L18.9221 35.7747L18.8035 36.2973L18.7357 36.484L18.7188 36.355L18.7764 36.1819V35.8019L18.8035 35.7883L18.8272 35.1944L18.8848 35.0213C19.0576 34.3834 19.0542 33.6571 19.454 33.121L19.6945 32.656L19.9656 32.0045C20.5212 31.0475 21.0701 29.6663 21.6291 28.7704L21.8357 28.3802L22.0119 28.2037L21.9984 28.5668L22.161 28.6958L22.3202 28.3802L22.5235 27.8881L22.6048 27.7252L22.7031 27.5827L22.9064 27.5114L23.1063 27.7388L23.4179 27.5963L23.9194 26.9447L23.9736 26.8565L24.0278 26.7275L24.4208 26.3373L25.1933 26.4391L25.2305 26.5069L25.3017 26.7852L25.7218 26.5952C25.9386 26.2626 26.2469 26.0013 26.4909 25.6959C26.9245 25.3192 27.2905 24.9154 27.8156 24.6269L27.9511 24.6541L28.4424 24.5794C28.7812 24.2638 29.2962 24.1484 29.6722 23.9007C29.9433 23.653 30.3634 23.5647 30.7022 23.3917C31.0003 23.2458 31.3527 23.2458 31.6339 23.1032C32.1489 22.9709 32.5419 22.6519 33.0162 22.4924C33.4092 22.4177 33.6938 22.1428 34.1105 22.1598C34.4934 22.0886 34.8457 21.8985 35.2354 21.8544C35.6047 21.8103 35.9401 21.6236 36.306 21.6813L36.8176 21.549C37.1428 21.3929 37.5121 21.4472 37.878 21.4065C38.1728 21.3046 38.5285 21.3182 38.8368 21.2605C39.2434 21.1146 39.6093 21.3759 40.0159 21.3318C41.1779 21.2028 42.3434 21.4065 43.4378 21.6101C43.885 21.739 44.3999 21.6813 44.8472 21.8239L45.186 21.8714L45.579 21.9257L45.7823 22.2005L45.7416 22.3499L46.1448 22.7265L45.6603 22.9709L45.6467 23.1168C45.9279 23.3068 46.3379 23.1881 46.6733 23.2186L47.2831 23.2593L47.893 23.2322L48.0963 23.5206L48.3402 23.5647L48.4215 23.4358L48.4486 23.2186L48.5028 22.8826C48.7536 22.1191 48.6316 21.0705 48.7739 20.3748V19.7233C47.0392 16.0243 46.4971 18.0774 48.3267 14.2732L48.4215 14.0255C48.4419 13.2891 49.1703 12.5391 49.1771 11.9351L49.2211 11.6602L49.316 11.4871L49.3566 11.2258H49.3837L49.3939 11.1071C50.5424 7.62528 52.9344 4.09599 54.6758 0.929818L55.0553 0.424186L55.5804 0.481871L55.638 1.21827L55.6651 1.23185L55.7329 1.47957L55.8108 1.66961L55.8684 1.81554L55.9328 2.03272L55.9633 2.29402L56.0141 2.59944L56.0547 2.9897L56.1089 3.20689V3.56999L56.136 3.59715L56.1767 4.13332H56.1936L56.2174 4.61181C56.3088 4.80525 56.3766 5.3007 56.4613 5.42626V5.81992L56.4884 5.83348V7.06534L56.5189 7.0925L56.5426 7.28253L56.5968 7.42845L56.6409 7.63206L56.6917 7.99517V8.51439L56.7493 8.66031L56.7865 8.96573L56.8408 9.19649L56.8679 9.49852L56.9356 9.58675L56.895 9.67158L56.9356 9.99397L56.9492 10.8491L56.9898 10.8627L57.0169 11.6602L57.0576 11.9826H57.0745L57.044 12.0233C57.0305 12.7088 57.21 13.4282 57.1524 13.8626L57.1389 14.4599L57.0982 14.4734V14.806L57.044 15.0402V15.444L57.0169 15.4576L56.9898 15.9395L57.0169 16.3874V17.2154L56.9492 17.4055L56.9898 17.6193V17.9993L56.9492 18.0265V18.505L56.9356 18.824L56.8679 18.997L56.8408 19.2855L56.7865 19.4925L56.6917 19.7979C56.4342 20.2017 55.9057 20.3477 55.3941 20.3612C55.0959 20.3477 54.8926 20.5784 54.6216 20.6192C54.3099 20.7685 53.944 20.7956 53.595 20.8805C53.2427 21.0162 52.9445 21.2877 52.7514 21.5931L52.687 21.7526C52.765 23.5885 51.8705 24.3724 51.8604 25.3497L52.006 25.4821L52.3618 25.2208L52.4262 25.1054L52.4838 24.9289L52.9682 25.0579C53.3613 25.1461 53.6594 25.3633 53.944 25.5975C54.5132 25.9131 55.0383 26.3373 55.6888 26.4934L55.9328 26.5952C56.2445 26.6393 56.4884 26.8158 56.8001 26.8701C57.2067 27.1483 57.7453 27.2603 58.0706 27.6404L58.0333 27.827L57.5726 27.9017L57.3422 28.0748L57.9385 28.4243L58.8871 28.9605C59.4123 29.1335 59.7816 29.5238 60.0763 29.9005L60.1441 30.0905L60.0356 30.1516C59.7646 30.0498 59.4665 29.9175 59.1548 29.948L58.8871 30.1346L59.2632 30.3383C59.7917 30.4536 60.2931 30.7149 60.6319 31.0611L61.1605 31.5837L61.645 32.0927L62.0109 32.4965L62.3361 32.8597H62.4987L62.3903 32.5848" fill="white"/>
<path d="M26.0028 18.2071L26.0571 18.2953L26.0706 18.6856L26.0842 18.9163L26.0571 18.9469L25.7183 19.0487L25.5963 18.9605L25.5285 18.8145L25.4066 18.4107L25.5048 18.2953V18.2478L25.6505 18.1799L26.0028 18.2071Z" fill="white"/>
</g>
<defs>
<clipPath id="clip0_5_170">
<rect width="166" height="80" fill="white"/>
</clipPath>
</defs>
</svg>
